# xmcd
#
# Track frame offsets:
# 150
# 22631
# 37866
# 65053
# 87673
# 112324
# 132164
# 155749
# 182721
# 206027
#
# Disc length: 3034 seconds
#
#
# Revision: 0
# Processed by: cddbd v1.5.1PL0 Copyright (c) Steve Scherf et al.
# Submitted via: FreeRIP 2.941 
#
DISCID=8b0bd80a
DTITLE=Jimmy Lewis - Soulgasm
DYEAR=1998
DGENRE=Soul
TTITLE0=See You Next Weekend
TTITLE1=Hold On To What You've Got
TTITLE2=I Fool Around Sometimes
TTITLE3=I Love Legs
TTITLE4=Without A Woman
TTITLE5=I Make Love To Feel Good
TTITLE6=Betty This and Betty That
TTITLE7=What's The Deal
TTITLE8=Just Let 'Em Talk
TTITLE9=Mojo
EXTD=Also with Peggy Scott-Adams and Little Richard
EXTT0=
EXTT1=
EXTT2=
EXTT3=
EXTT4=
EXTT5=
EXTT6=
EXTT7=
EXTT8=
EXTT9=
PLAYORDER=
